<mxfile host="Electron" agent="Mozilla/5.0 (Windows NT 10.0; Win64; x64) AppleWebKit/537.36 (KHTML, like Gecko) draw.io/27.0.9 Chrome/134.0.6998.205 Electron/35.4.0 Safari/537.36" version="27.0.9">
  <diagram name="Page-1" id="zDC7yg41739mKEmi7JkL">
    <mxGraphModel dx="925" dy="661" grid="1" gridSize="10" guides="1" tooltips="1" connect="1" arrows="1" fold="1" page="1" pageScale="1" pageWidth="850" pageHeight="1100" background="none" math="0" shadow="0">
      <root>
        <mxCell id="0" />
        <mxCell id="1" parent="0" />
        <mxCell id="JTAhajaf97moWuEwI5oV-9" style="edgeStyle=orthogonalEdgeStyle;rounded=0;orthogonalLoop=1;jettySize=auto;html=1;exitX=1;exitY=0;exitDx=0;exitDy=0;entryX=0.5;entryY=0;entryDx=0;entryDy=0;endArrow=none;startFill=0;shape=link;" parent="1" source="_5OJTMY7ZmKPSs16niRT-24" edge="1">
          <mxGeometry relative="1" as="geometry">
            <mxPoint x="540" y="290" as="sourcePoint" />
            <mxPoint x="420" y="422.5" as="targetPoint" />
            <Array as="points">
              <mxPoint x="540" y="355" />
              <mxPoint x="420" y="355" />
            </Array>
          </mxGeometry>
        </mxCell>
        <mxCell id="_5OJTMY7ZmKPSs16niRT-3" style="edgeStyle=none;rounded=0;orthogonalLoop=1;jettySize=auto;html=1;exitX=0.25;exitY=0;exitDx=0;exitDy=0;endArrow=none;startFill=0;" edge="1" parent="1" source="JTAhajaf97moWuEwI5oV-1" target="_5OJTMY7ZmKPSs16niRT-4">
          <mxGeometry relative="1" as="geometry">
            <mxPoint x="590" y="100" as="targetPoint" />
          </mxGeometry>
        </mxCell>
        <mxCell id="_5OJTMY7ZmKPSs16niRT-5" style="edgeStyle=none;rounded=0;orthogonalLoop=1;jettySize=auto;html=1;exitX=0.75;exitY=0;exitDx=0;exitDy=0;endArrow=none;startFill=0;" edge="1" parent="1" source="JTAhajaf97moWuEwI5oV-1" target="_5OJTMY7ZmKPSs16niRT-6">
          <mxGeometry relative="1" as="geometry">
            <mxPoint x="730" y="90" as="targetPoint" />
          </mxGeometry>
        </mxCell>
        <mxCell id="_5OJTMY7ZmKPSs16niRT-11" style="edgeStyle=none;rounded=0;orthogonalLoop=1;jettySize=auto;html=1;exitX=1;exitY=0.5;exitDx=0;exitDy=0;endArrow=none;startFill=0;shape=link;" edge="1" parent="1" source="JTAhajaf97moWuEwI5oV-1" target="_5OJTMY7ZmKPSs16niRT-12">
          <mxGeometry relative="1" as="geometry">
            <mxPoint x="680" y="350" as="targetPoint" />
            <mxPoint x="590" y="250" as="sourcePoint" />
            <Array as="points" />
          </mxGeometry>
        </mxCell>
        <mxCell id="JTAhajaf97moWuEwI5oV-1" value="course" style="rounded=0;whiteSpace=wrap;html=1;gradientColor=#A9C4EB;gradientDirection=east;" parent="1" vertex="1">
          <mxGeometry x="480" y="225" width="120" height="60" as="geometry" />
        </mxCell>
        <mxCell id="_5OJTMY7ZmKPSs16niRT-1" style="edgeStyle=none;rounded=0;orthogonalLoop=1;jettySize=auto;html=1;exitX=0.5;exitY=0;exitDx=0;exitDy=0;endArrow=none;startFill=0;" edge="1" parent="1" source="JTAhajaf97moWuEwI5oV-2" target="_5OJTMY7ZmKPSs16niRT-2">
          <mxGeometry relative="1" as="geometry">
            <mxPoint x="210" y="100" as="targetPoint" />
          </mxGeometry>
        </mxCell>
        <object label="Trainee" id="JTAhajaf97moWuEwI5oV-2">
          <mxCell style="rounded=0;whiteSpace=wrap;html=1;gradientColor=#FFCE9F;" parent="1" vertex="1">
            <mxGeometry x="100" y="220" width="120" height="60" as="geometry" />
          </mxCell>
        </object>
        <mxCell id="JTAhajaf97moWuEwI5oV-3" value="enrollment" style="rounded=0;whiteSpace=wrap;html=1;gradientColor=#C3ABD0;gradientDirection=west;" parent="1" vertex="1">
          <mxGeometry x="100" y="485" width="120" height="60" as="geometry" />
        </mxCell>
        <mxCell id="JTAhajaf97moWuEwI5oV-47" style="rounded=0;orthogonalLoop=1;jettySize=auto;html=1;exitX=1;exitY=1;exitDx=0;exitDy=0;endArrow=none;startFill=0;curved=0;" parent="1" source="JTAhajaf97moWuEwI5oV-4" target="JTAhajaf97moWuEwI5oV-44" edge="1">
          <mxGeometry relative="1" as="geometry" />
        </mxCell>
        <mxCell id="JTAhajaf97moWuEwI5oV-48" style="rounded=0;orthogonalLoop=1;jettySize=auto;html=1;exitX=0.5;exitY=1;exitDx=0;exitDy=0;endArrow=none;startFill=0;" parent="1" source="JTAhajaf97moWuEwI5oV-4" target="JTAhajaf97moWuEwI5oV-46" edge="1">
          <mxGeometry relative="1" as="geometry" />
        </mxCell>
        <mxCell id="JTAhajaf97moWuEwI5oV-49" style="edgeStyle=none;rounded=0;orthogonalLoop=1;jettySize=auto;html=1;exitX=0;exitY=1;exitDx=0;exitDy=0;endArrow=none;startFill=0;" parent="1" source="JTAhajaf97moWuEwI5oV-4" target="JTAhajaf97moWuEwI5oV-45" edge="1">
          <mxGeometry relative="1" as="geometry" />
        </mxCell>
        <mxCell id="_5OJTMY7ZmKPSs16niRT-9" style="edgeStyle=none;rounded=0;orthogonalLoop=1;jettySize=auto;html=1;exitX=0.25;exitY=1;exitDx=0;exitDy=0;endArrow=none;startFill=0;" edge="1" parent="1" source="JTAhajaf97moWuEwI5oV-4" target="_5OJTMY7ZmKPSs16niRT-10">
          <mxGeometry relative="1" as="geometry">
            <mxPoint x="110" y="770" as="targetPoint" />
          </mxGeometry>
        </mxCell>
        <mxCell id="JTAhajaf97moWuEwI5oV-4" value="trainer" style="rounded=0;whiteSpace=wrap;html=1;shadow=0;glass=0;fillStyle=auto;fillColor=default;gradientColor=#D5E8D4;" parent="1" vertex="1">
          <mxGeometry x="420" y="660" width="120" height="60" as="geometry" />
        </mxCell>
        <mxCell id="JTAhajaf97moWuEwI5oV-10" style="edgeStyle=none;rounded=0;orthogonalLoop=1;jettySize=auto;html=1;endArrow=none;startFill=0;" parent="1" source="JTAhajaf97moWuEwI5oV-5" target="JTAhajaf97moWuEwI5oV-3" edge="1">
          <mxGeometry relative="1" as="geometry">
            <mxPoint x="270" y="485" as="sourcePoint" />
          </mxGeometry>
        </mxCell>
        <mxCell id="JTAhajaf97moWuEwI5oV-5" value="has" style="rhombus;whiteSpace=wrap;html=1;fillColor=#ffff88;strokeColor=#36393d;" parent="1" vertex="1">
          <mxGeometry x="380" y="417.5" width="80" height="80" as="geometry" />
        </mxCell>
        <mxCell id="JTAhajaf97moWuEwI5oV-20" style="edgeStyle=none;rounded=0;orthogonalLoop=1;jettySize=auto;html=1;entryX=1;entryY=0;entryDx=0;entryDy=0;endArrow=none;startFill=0;" parent="1" source="JTAhajaf97moWuEwI5oV-16" target="JTAhajaf97moWuEwI5oV-1" edge="1">
          <mxGeometry relative="1" as="geometry" />
        </mxCell>
        <mxCell id="JTAhajaf97moWuEwI5oV-16" value="category" style="ellipse;whiteSpace=wrap;html=1;shadow=0;fillColor=#dae8fc;strokeColor=#6c8ebf;" parent="1" vertex="1">
          <mxGeometry x="720" y="120" width="80" height="70" as="geometry" />
        </mxCell>
        <mxCell id="JTAhajaf97moWuEwI5oV-22" style="edgeStyle=none;rounded=0;orthogonalLoop=1;jettySize=auto;html=1;exitX=0.5;exitY=1;exitDx=0;exitDy=0;endArrow=none;startFill=0;" parent="1" source="JTAhajaf97moWuEwI5oV-17" target="JTAhajaf97moWuEwI5oV-1" edge="1">
          <mxGeometry relative="1" as="geometry" />
        </mxCell>
        <mxCell id="JTAhajaf97moWuEwI5oV-17" value="title" style="ellipse;whiteSpace=wrap;html=1;fillColor=#dae8fc;strokeColor=#6c8ebf;" parent="1" vertex="1">
          <mxGeometry x="495" y="120" width="80" height="60" as="geometry" />
        </mxCell>
        <mxCell id="JTAhajaf97moWuEwI5oV-21" style="rounded=0;orthogonalLoop=1;jettySize=auto;html=1;exitX=0.5;exitY=1;exitDx=0;exitDy=0;endArrow=none;startFill=0;" parent="1" source="JTAhajaf97moWuEwI5oV-18" target="JTAhajaf97moWuEwI5oV-1" edge="1">
          <mxGeometry relative="1" as="geometry" />
        </mxCell>
        <mxCell id="JTAhajaf97moWuEwI5oV-18" value="course ID" style="ellipse;whiteSpace=wrap;html=1;fontStyle=4;fillColor=#dae8fc;strokeColor=#6c8ebf;" parent="1" vertex="1">
          <mxGeometry x="613.75" y="105" width="70" height="55" as="geometry" />
        </mxCell>
        <mxCell id="JTAhajaf97moWuEwI5oV-29" style="rounded=0;orthogonalLoop=1;jettySize=auto;html=1;exitX=1;exitY=1;exitDx=0;exitDy=0;endArrow=none;startFill=0;" parent="1" source="JTAhajaf97moWuEwI5oV-23" target="JTAhajaf97moWuEwI5oV-2" edge="1">
          <mxGeometry relative="1" as="geometry" />
        </mxCell>
        <mxCell id="JTAhajaf97moWuEwI5oV-23" value="trainee ID" style="ellipse;whiteSpace=wrap;html=1;fontStyle=4;fillColor=#fff2cc;strokeColor=#d6b656;" parent="1" vertex="1">
          <mxGeometry x="40" y="160" width="70" height="50" as="geometry" />
        </mxCell>
        <mxCell id="JTAhajaf97moWuEwI5oV-30" style="rounded=0;orthogonalLoop=1;jettySize=auto;html=1;exitX=0.5;exitY=1;exitDx=0;exitDy=0;endArrow=none;startFill=0;" parent="1" source="JTAhajaf97moWuEwI5oV-24" target="JTAhajaf97moWuEwI5oV-2" edge="1">
          <mxGeometry relative="1" as="geometry" />
        </mxCell>
        <mxCell id="JTAhajaf97moWuEwI5oV-24" value="email" style="ellipse;whiteSpace=wrap;html=1;fillColor=#fff2cc;strokeColor=#d6b656;" parent="1" vertex="1">
          <mxGeometry x="115" y="120" width="70" height="45" as="geometry" />
        </mxCell>
        <mxCell id="JTAhajaf97moWuEwI5oV-31" style="rounded=0;orthogonalLoop=1;jettySize=auto;html=1;exitX=0.5;exitY=1;exitDx=0;exitDy=0;endArrow=none;startFill=0;" parent="1" source="JTAhajaf97moWuEwI5oV-25" target="JTAhajaf97moWuEwI5oV-2" edge="1">
          <mxGeometry relative="1" as="geometry" />
        </mxCell>
        <mxCell id="JTAhajaf97moWuEwI5oV-25" value="GENDER" style="ellipse;whiteSpace=wrap;html=1;fillColor=#fff2cc;strokeColor=#d6b656;" parent="1" vertex="1">
          <mxGeometry x="200" y="130" width="60" height="40" as="geometry" />
        </mxCell>
        <mxCell id="JTAhajaf97moWuEwI5oV-26" value="NAME" style="ellipse;whiteSpace=wrap;html=1;fillColor=#fff2cc;strokeColor=#d6b656;" parent="1" vertex="1">
          <mxGeometry x="270" y="145" width="70" height="50" as="geometry" />
        </mxCell>
        <mxCell id="JTAhajaf97moWuEwI5oV-34" style="edgeStyle=none;rounded=0;orthogonalLoop=1;jettySize=auto;html=1;exitX=0.5;exitY=1;exitDx=0;exitDy=0;endArrow=none;startFill=0;" parent="1" source="JTAhajaf97moWuEwI5oV-27" target="JTAhajaf97moWuEwI5oV-26" edge="1">
          <mxGeometry relative="1" as="geometry" />
        </mxCell>
        <mxCell id="JTAhajaf97moWuEwI5oV-27" value="Lname" style="ellipse;whiteSpace=wrap;html=1;fillColor=#e3c800;fontColor=#000000;strokeColor=#B09500;" parent="1" vertex="1">
          <mxGeometry x="280" y="65" width="50" height="50" as="geometry" />
        </mxCell>
        <mxCell id="JTAhajaf97moWuEwI5oV-33" style="rounded=0;orthogonalLoop=1;jettySize=auto;html=1;exitX=0.5;exitY=1;exitDx=0;exitDy=0;endArrow=none;startFill=0;" parent="1" source="JTAhajaf97moWuEwI5oV-28" target="JTAhajaf97moWuEwI5oV-26" edge="1">
          <mxGeometry relative="1" as="geometry" />
        </mxCell>
        <mxCell id="JTAhajaf97moWuEwI5oV-28" value="Fname" style="ellipse;whiteSpace=wrap;html=1;fillColor=#e3c800;fontColor=#000000;strokeColor=#B09500;" parent="1" vertex="1">
          <mxGeometry x="360" y="95" width="50" height="50" as="geometry" />
        </mxCell>
        <mxCell id="JTAhajaf97moWuEwI5oV-32" style="rounded=0;orthogonalLoop=1;jettySize=auto;html=1;exitX=0.5;exitY=1;exitDx=0;exitDy=0;entryX=1;entryY=0;entryDx=0;entryDy=0;endArrow=none;startFill=0;" parent="1" source="JTAhajaf97moWuEwI5oV-26" target="JTAhajaf97moWuEwI5oV-2" edge="1">
          <mxGeometry relative="1" as="geometry" />
        </mxCell>
        <mxCell id="JTAhajaf97moWuEwI5oV-44" value="specialty" style="ellipse;whiteSpace=wrap;html=1;fillColor=#cdeb8b;strokeColor=#36393d;" parent="1" vertex="1">
          <mxGeometry x="618.75" y="765" width="80" height="70" as="geometry" />
        </mxCell>
        <mxCell id="JTAhajaf97moWuEwI5oV-45" value="trainer Id" style="ellipse;whiteSpace=wrap;html=1;fontStyle=4;fillColor=#cdeb8b;strokeColor=#36393d;" parent="1" vertex="1">
          <mxGeometry x="280" y="830" width="80" height="70" as="geometry" />
        </mxCell>
        <mxCell id="JTAhajaf97moWuEwI5oV-46" value="name" style="ellipse;whiteSpace=wrap;html=1;fillColor=#cdeb8b;strokeColor=#36393d;" parent="1" vertex="1">
          <mxGeometry x="460" y="760" width="80" height="70" as="geometry" />
        </mxCell>
        <mxCell id="JTAhajaf97moWuEwI5oV-51" value="enrollment ID" style="ellipse;whiteSpace=wrap;html=1;fontStyle=4;fillColor=#e1d5e7;strokeColor=#9673a6;" parent="1" vertex="1">
          <mxGeometry x="160" y="617.5" width="70" height="55" as="geometry" />
        </mxCell>
        <mxCell id="JTAhajaf97moWuEwI5oV-58" style="edgeStyle=none;rounded=0;orthogonalLoop=1;jettySize=auto;html=1;entryX=0.25;entryY=1;entryDx=0;entryDy=0;endArrow=none;startFill=0;" parent="1" source="JTAhajaf97moWuEwI5oV-53" target="JTAhajaf97moWuEwI5oV-3" edge="1">
          <mxGeometry relative="1" as="geometry">
            <Array as="points" />
          </mxGeometry>
        </mxCell>
        <mxCell id="JTAhajaf97moWuEwI5oV-53" value="enrollment date" style="ellipse;whiteSpace=wrap;html=1;fillColor=#e1d5e7;strokeColor=#9673a6;" parent="1" vertex="1">
          <mxGeometry x="70" y="612.5" width="70" height="60" as="geometry" />
        </mxCell>
        <mxCell id="JTAhajaf97moWuEwI5oV-57" style="edgeStyle=none;rounded=0;orthogonalLoop=1;jettySize=auto;html=1;entryX=0.6;entryY=1.033;entryDx=0;entryDy=0;entryPerimeter=0;endArrow=none;startFill=0;" parent="1" source="JTAhajaf97moWuEwI5oV-51" target="JTAhajaf97moWuEwI5oV-3" edge="1">
          <mxGeometry relative="1" as="geometry" />
        </mxCell>
        <mxCell id="JTAhajaf97moWuEwI5oV-64" style="edgeStyle=none;rounded=0;orthogonalLoop=1;jettySize=auto;html=1;endArrow=none;startFill=0;" parent="1" source="JTAhajaf97moWuEwI5oV-63" target="JTAhajaf97moWuEwI5oV-2" edge="1">
          <mxGeometry relative="1" as="geometry" />
        </mxCell>
        <mxCell id="_5OJTMY7ZmKPSs16niRT-40" style="edgeStyle=none;rounded=0;orthogonalLoop=1;jettySize=auto;html=1;exitX=0.5;exitY=1;exitDx=0;exitDy=0;endArrow=none;startFill=0;shape=link;" edge="1" parent="1" source="JTAhajaf97moWuEwI5oV-63" target="JTAhajaf97moWuEwI5oV-3">
          <mxGeometry relative="1" as="geometry" />
        </mxCell>
        <mxCell id="JTAhajaf97moWuEwI5oV-63" value="has" style="rhombus;whiteSpace=wrap;html=1;fillColor=#ffcccc;strokeColor=#36393d;" parent="1" vertex="1">
          <mxGeometry x="120" y="330" width="80" height="80" as="geometry" />
        </mxCell>
        <mxCell id="JTAhajaf97moWuEwI5oV-70" value="M" style="text;html=1;align=center;verticalAlign=middle;whiteSpace=wrap;rounded=0;" parent="1" vertex="1">
          <mxGeometry x="590" y="220" width="60" height="30" as="geometry" />
        </mxCell>
        <mxCell id="JTAhajaf97moWuEwI5oV-72" value="M" style="text;html=1;align=center;verticalAlign=middle;whiteSpace=wrap;rounded=0;" parent="1" vertex="1">
          <mxGeometry x="685" y="355" width="60" height="30" as="geometry" />
        </mxCell>
        <mxCell id="JTAhajaf97moWuEwI5oV-75" value="1" style="text;html=1;align=center;verticalAlign=middle;whiteSpace=wrap;rounded=0;" parent="1" vertex="1">
          <mxGeometry x="200" y="470" width="60" height="25" as="geometry" />
        </mxCell>
        <mxCell id="JTAhajaf97moWuEwI5oV-78" value="M" style="text;html=1;align=center;verticalAlign=middle;whiteSpace=wrap;rounded=0;" parent="1" vertex="1">
          <mxGeometry x="110" y="280" width="60" height="30" as="geometry" />
        </mxCell>
        <mxCell id="_5OJTMY7ZmKPSs16niRT-2" value="background" style="ellipse;whiteSpace=wrap;html=1;fillColor=#fff2cc;strokeColor=#d6b656;" vertex="1" parent="1">
          <mxGeometry x="165" y="60" width="90" height="50" as="geometry" />
        </mxCell>
        <mxCell id="_5OJTMY7ZmKPSs16niRT-4" value="duration hours" style="ellipse;whiteSpace=wrap;html=1;fillColor=#dae8fc;strokeColor=#6c8ebf;" vertex="1" parent="1">
          <mxGeometry x="445" y="45" width="80" height="70" as="geometry" />
        </mxCell>
        <mxCell id="_5OJTMY7ZmKPSs16niRT-6" value="level" style="ellipse;whiteSpace=wrap;html=1;fillColor=#dae8fc;strokeColor=#6c8ebf;" vertex="1" parent="1">
          <mxGeometry x="590" y="30" width="70" height="50" as="geometry" />
        </mxCell>
        <mxCell id="_5OJTMY7ZmKPSs16niRT-10" value="email" style="ellipse;whiteSpace=wrap;html=1;fillColor=#d5e8d4;strokeColor=#82b366;" vertex="1" parent="1">
          <mxGeometry x="380" y="765" width="80" height="70" as="geometry" />
        </mxCell>
        <mxCell id="_5OJTMY7ZmKPSs16niRT-13" style="edgeStyle=none;rounded=0;orthogonalLoop=1;jettySize=auto;html=1;exitX=0.5;exitY=1;exitDx=0;exitDy=0;endArrow=none;startFill=0;" edge="1" parent="1" source="_5OJTMY7ZmKPSs16niRT-12" target="_5OJTMY7ZmKPSs16niRT-14">
          <mxGeometry relative="1" as="geometry">
            <mxPoint x="670" y="430" as="targetPoint" />
          </mxGeometry>
        </mxCell>
        <mxCell id="_5OJTMY7ZmKPSs16niRT-12" value="offer" style="rhombus;whiteSpace=wrap;html=1;fillColor=#ffe6cc;strokeColor=#d79b00;" vertex="1" parent="1">
          <mxGeometry x="650" y="265" width="80" height="70" as="geometry" />
        </mxCell>
        <mxCell id="_5OJTMY7ZmKPSs16niRT-15" style="edgeStyle=none;rounded=0;orthogonalLoop=1;jettySize=auto;html=1;endArrow=none;startFill=0;entryX=0.03;entryY=0.295;entryDx=0;entryDy=0;entryPerimeter=0;" edge="1" parent="1" target="_5OJTMY7ZmKPSs16niRT-20">
          <mxGeometry relative="1" as="geometry">
            <mxPoint x="770" y="500" as="targetPoint" />
            <mxPoint x="750" y="440" as="sourcePoint" />
          </mxGeometry>
        </mxCell>
        <mxCell id="_5OJTMY7ZmKPSs16niRT-16" style="rounded=0;orthogonalLoop=1;jettySize=auto;html=1;endArrow=none;startFill=0;entryX=1;entryY=0;entryDx=0;entryDy=0;" edge="1" parent="1" source="_5OJTMY7ZmKPSs16niRT-14" target="_5OJTMY7ZmKPSs16niRT-21">
          <mxGeometry relative="1" as="geometry">
            <mxPoint x="660" y="490" as="targetPoint" />
          </mxGeometry>
        </mxCell>
        <mxCell id="_5OJTMY7ZmKPSs16niRT-18" style="edgeStyle=none;rounded=0;orthogonalLoop=1;jettySize=auto;html=1;exitX=0.25;exitY=1;exitDx=0;exitDy=0;endArrow=none;startFill=0;" edge="1" parent="1" source="_5OJTMY7ZmKPSs16niRT-14" target="_5OJTMY7ZmKPSs16niRT-19">
          <mxGeometry relative="1" as="geometry">
            <mxPoint x="650" y="510" as="targetPoint" />
          </mxGeometry>
        </mxCell>
        <mxCell id="_5OJTMY7ZmKPSs16niRT-36" style="edgeStyle=none;rounded=0;orthogonalLoop=1;jettySize=auto;html=1;exitX=0.5;exitY=1;exitDx=0;exitDy=0;entryX=0.5;entryY=0;entryDx=0;entryDy=0;endArrow=none;startFill=0;" edge="1" parent="1" source="_5OJTMY7ZmKPSs16niRT-14" target="_5OJTMY7ZmKPSs16niRT-23">
          <mxGeometry relative="1" as="geometry" />
        </mxCell>
        <mxCell id="_5OJTMY7ZmKPSs16niRT-14" value="schedule" style="rounded=0;whiteSpace=wrap;html=1;fillColor=#e3c800;strokeColor=#B09500;fontColor=#000000;" vertex="1" parent="1">
          <mxGeometry x="660" y="390" width="120" height="50" as="geometry" />
        </mxCell>
        <mxCell id="_5OJTMY7ZmKPSs16niRT-19" value="&lt;u&gt;schedule id&lt;/u&gt;" style="ellipse;whiteSpace=wrap;html=1;fillColor=#fff2cc;strokeColor=#d6b656;" vertex="1" parent="1">
          <mxGeometry x="633.75" y="475" width="50" height="60" as="geometry" />
        </mxCell>
        <mxCell id="_5OJTMY7ZmKPSs16niRT-20" value="start date" style="ellipse;whiteSpace=wrap;html=1;fillColor=#fff2cc;strokeColor=#d6b656;" vertex="1" parent="1">
          <mxGeometry x="780" y="475" width="55" height="60" as="geometry" />
        </mxCell>
        <mxCell id="_5OJTMY7ZmKPSs16niRT-21" value="end date" style="ellipse;whiteSpace=wrap;html=1;fillColor=#fff2cc;strokeColor=#d6b656;" vertex="1" parent="1">
          <mxGeometry x="673.75" y="525" width="57.5" height="50" as="geometry" />
        </mxCell>
        <mxCell id="_5OJTMY7ZmKPSs16niRT-23" value="time slot" style="ellipse;whiteSpace=wrap;html=1;fillColor=#fff2cc;strokeColor=#d6b656;" vertex="1" parent="1">
          <mxGeometry x="745" y="542.5" width="65" height="70" as="geometry" />
        </mxCell>
        <mxCell id="_5OJTMY7ZmKPSs16niRT-24" value="M" style="text;html=1;align=center;verticalAlign=middle;whiteSpace=wrap;rounded=0;" vertex="1" parent="1">
          <mxGeometry x="480" y="285" width="60" height="30" as="geometry" />
        </mxCell>
        <mxCell id="_5OJTMY7ZmKPSs16niRT-41" style="edgeStyle=none;rounded=0;orthogonalLoop=1;jettySize=auto;html=1;endArrow=none;startFill=0;exitX=1;exitY=0.5;exitDx=0;exitDy=0;" edge="1" parent="1" source="_5OJTMY7ZmKPSs16niRT-30" target="JTAhajaf97moWuEwI5oV-4">
          <mxGeometry relative="1" as="geometry" />
        </mxCell>
        <mxCell id="_5OJTMY7ZmKPSs16niRT-42" style="edgeStyle=none;rounded=0;orthogonalLoop=1;jettySize=auto;html=1;exitX=0;exitY=0.5;exitDx=0;exitDy=0;entryX=0;entryY=0.5;entryDx=0;entryDy=0;endArrow=none;startFill=0;" edge="1" parent="1" source="_5OJTMY7ZmKPSs16niRT-30" target="_5OJTMY7ZmKPSs16niRT-14">
          <mxGeometry relative="1" as="geometry" />
        </mxCell>
        <mxCell id="_5OJTMY7ZmKPSs16niRT-30" value="check" style="rhombus;whiteSpace=wrap;html=1;fillColor=#d80073;strokeColor=#A50040;fontColor=#ffffff;rotation=0;direction=south;" vertex="1" parent="1">
          <mxGeometry x="505" y="495" width="80" height="70" as="geometry" />
        </mxCell>
        <mxCell id="_5OJTMY7ZmKPSs16niRT-32" style="edgeStyle=none;rounded=0;orthogonalLoop=1;jettySize=auto;html=1;exitX=1;exitY=1;exitDx=0;exitDy=0;" edge="1" parent="1" source="JTAhajaf97moWuEwI5oV-44" target="JTAhajaf97moWuEwI5oV-44">
          <mxGeometry relative="1" as="geometry" />
        </mxCell>
        <mxCell id="_5OJTMY7ZmKPSs16niRT-33" value="M" style="text;html=1;align=center;verticalAlign=middle;whiteSpace=wrap;rounded=0;" vertex="1" parent="1">
          <mxGeometry x="110" y="445" width="60" height="30" as="geometry" />
        </mxCell>
        <mxCell id="_5OJTMY7ZmKPSs16niRT-37" value="1" style="text;html=1;align=center;verticalAlign=middle;whiteSpace=wrap;rounded=0;" vertex="1" parent="1">
          <mxGeometry x="618.75" y="440" width="60" height="30" as="geometry" />
        </mxCell>
        <mxCell id="_5OJTMY7ZmKPSs16niRT-48" value="1" style="text;html=1;align=center;verticalAlign=middle;whiteSpace=wrap;rounded=0;" vertex="1" parent="1">
          <mxGeometry x="445" y="630" width="60" height="30" as="geometry" />
        </mxCell>
        <mxCell id="_5OJTMY7ZmKPSs16niRT-49" style="edgeStyle=none;rounded=0;orthogonalLoop=1;jettySize=auto;html=1;entryX=0.896;entryY=1.003;entryDx=0;entryDy=0;entryPerimeter=0;endArrow=none;startFill=0;" edge="1" parent="1" target="JTAhajaf97moWuEwI5oV-4">
          <mxGeometry relative="1" as="geometry">
            <mxPoint x="563.4708376627741" y="821.0074908437211" as="sourcePoint" />
          </mxGeometry>
        </mxCell>
        <mxCell id="_5OJTMY7ZmKPSs16niRT-50" value="PHONE" style="ellipse;shape=doubleEllipse;margin=3;whiteSpace=wrap;html=1;align=center;fillColor=#cdeb8b;strokeColor=#36393d;" vertex="1" parent="1">
          <mxGeometry x="518.75" y="820" width="100" height="60" as="geometry" />
        </mxCell>
      </root>
    </mxGraphModel>
  </diagram>
</mxfile>
